<?xml version="1.0" encoding="iso-8859-1"?>
<!-- Generator: Adobe Illustrator 19.1.0, SVG Export Plug-In . SVG Version: 6.00 Build 0)  -->
<svg xmlns="http://www.w3.org/2000/svg" xmlns:xlink="http://www.w3.org/1999/xlink" version="1.1" id="Capa_1" x="0px" y="0px" viewBox="0 0 198 198" style="enable-background:new 0 0 198 198;" xml:space="preserve" width="512px" height="512px">
<g>
	<path d="M56.8,80h24c1.9,0,3.4-1.4,4-2.8l1.4-3l4.3,8.6c0.7,1.4,2.1,2.2,3.6,2.1c1.5-0.1,2.8-1.2,3.3-2.7l4.3-13.1l4.6,23   c0.4,2,2,2.9,3.3,3c0.1,0,0.2,0,0.3,0c1.3,0,2.8-0.9,3.5-2.6l5.1-13.8l20.6,0.1l0,0c1.9,0,3.5-1.5,3.5-3.4s-1.5-3.3-3.5-3.3   l-22.5-0.2l0,0c-1.8,0-3.5,1.1-4.1,2.8l-1.6,4.5l-4.8-24c-0.4-2-2-3-3.4-3.1s-3.1,0.7-3.7,2.6l-5.7,17.5l-3.7-7.4   c-0.7-1.3-2-2.1-3.4-2.1l0,0c-1.5,0-2.8,0.9-3.4,2.3l-3.6,7.7H56.9c-1.9,0-3.5,1.6-3.5,3.5S54.9,80,56.8,80z" fill="#FFFFFF"/>
	<path d="M138.8,105h-82c-2.2,0-4,1.8-4,4s1.8,4,4,4h82c2.2,0,4-1.8,4-4S141,105,138.8,105z" fill="#FFFFFF"/>
	<path d="M138.8,126h-82c-2.2,0-4,1.8-4,4s1.8,4,4,4h82c2.2,0,4-1.8,4-4S141,126,138.8,126z" fill="#FFFFFF"/>
	<path d="M138.8,147h-82c-2.2,0-4,1.8-4,4s1.8,4,4,4h82c2.2,0,4-1.8,4-4S141,147,138.8,147z" fill="#FFFFFF"/>
	<path d="M138.8,169h-82c-2.2,0-4,1.8-4,4s1.8,4,4,4h82c2.2,0,4-1.8,4-4S141,169,138.8,169z" fill="#FFFFFF"/>
	<path d="M163.5,22h-21.1v-6h-14.1C121.6,0,102,0,101.1,0l0,0l0,0c-0.9,0-20,0-26.6,16h-20v6H34.7c-2.7,0-5.2,2.2-5.2,5v166.3   c0,2.7,2.4,4.7,5.2,4.7h128.9c2.7,0,4.9-2,4.9-4.7V27C168.4,24.2,166.2,22,163.5,22z M61.4,28.8V23h18.1l0.2-0.8l0.1-0.3l0.3-1.4   C83.9,8.1,98.5,7,100.5,6.9V7c0,0,0.5,0.1,0.6,0.1h0.1l0,0h0.4c0.1,0,0.2,0,0.3,0s0.3,0,0.4,0l0,0l0,0l0,0l0,0   c0.2,0,0.5-0.1,0.8-0.1c0.2,0,0.3,0,0.5,0c0.1,0,0.3,0,0.4,0c1.3,0.2,2.9,0.5,4.7,1c0.2,0.1,0.5,0.1,0.8,0.2   c0.8,0.2,1.5,0.5,2.3,0.9c1,0.4,2.1,1,3.1,1.6c0.2,0.1,0.4,0.2,0.6,0.4c0.5,0.4,1.1,0.8,1.6,1.2c0.2,0.2,0.5,0.4,0.7,0.6   s0.5,0.4,0.7,0.6c0.2,0.1,0.3,0.3,0.4,0.5c1.6,1.7,2.9,3.8,3.7,6.4l0.5,1.6l0.3,1.1h12.2v5.8v7.2H101l0,0H61.4V28.8z M161.4,192   h-125V29h18v14h46.4h41.6V29h19V192z" fill="#FFFFFF"/>
</g>
<g>
</g>
<g>
</g>
<g>
</g>
<g>
</g>
<g>
</g>
<g>
</g>
<g>
</g>
<g>
</g>
<g>
</g>
<g>
</g>
<g>
</g>
<g>
</g>
<g>
</g>
<g>
</g>
<g>
</g>
</svg>
