<?xml version="1.0" encoding="iso-8859-1"?>
<!-- Generator: Adobe Illustrator 18.0.0, SVG Export Plug-In . SVG Version: 6.00 Build 0)  -->
<!DOCTYPE svg PUBLIC "-//W3C//DTD SVG 1.1//EN" "http://www.w3.org/Graphics/SVG/1.1/DTD/svg11.dtd">
<svg xmlns="http://www.w3.org/2000/svg" xmlns:xlink="http://www.w3.org/1999/xlink" version="1.1" id="Capa_1" x="0px" y="0px" viewBox="0 0 59.997 59.997" style="enable-background:new 0 0 59.997 59.997;" xml:space="preserve" width="512px" height="512px">
<g>
	<circle cx="34.008" cy="25.998" r="1" fill="#FFFFFF"/>
	<circle cx="23.008" cy="37.998" r="1" fill="#FFFFFF"/>
	<circle cx="43.008" cy="40.998" r="1" fill="#FFFFFF"/>
	<circle cx="50.008" cy="30.998" r="1" fill="#FFFFFF"/>
	<circle cx="39.008" cy="21.998" r="1" fill="#FFFFFF"/>
	<path d="M53.495,44.269L53.495,44.269c-1.138-0.312-2.293-0.354-3.429-0.127c-0.359,0.072-0.712-0.005-0.967-0.211l-1.411-1.132   c-0.397-0.318-0.521-0.88-0.301-1.364c0.401-0.882,0.733-1.804,0.986-2.739c0.128-0.472,0.452-0.869,0.892-1.091   c0.398-0.202,0.835-0.229,1.228-0.076c1.861,0.72,3.949,0.604,5.726-0.31c3.236-1.668,4.665-5.733,3.185-9.063   c-0.769-1.727-2.165-3.044-3.933-3.709s-3.687-0.594-5.402,0.198c-0.313,0.145-0.654,0.354-1.039,0.636   c-0.432,0.315-0.94,0.435-1.422,0.336c-0.48-0.097-0.895-0.399-1.164-0.851c-0.574-0.96-1.265-1.819-1.961-2.684   c-0.636-0.791-0.744-1.889-0.277-2.795l1.479-2.87c0.42-0.817,1.176-1.373,1.974-1.452c0.741-0.073,1.476-0.274,2.183-0.598   c2.248-1.028,3.824-3.132,4.112-5.489c0.271-2.206-0.48-4.354-2.061-5.895s-3.746-2.236-5.955-1.906   c-2.959,0.44-5.359,2.81-5.836,5.763c-0.22,1.358-0.049,2.73,0.494,3.965c0.359,0.819,0.36,1.688,0.003,2.382l-1.158,2.249   c-0.593,1.149-1.93,1.741-3.104,1.374c-1.059-0.331-2.824-0.555-4.119-0.685c-0.362-0.036-0.663-0.299-0.747-0.651l-1.139-4.804   c-0.063-0.265,0.017-0.55,0.218-0.783c1.205-1.392,1.696-3.233,1.347-5.056c-0.45-2.334-2.306-4.224-4.618-4.703   c-1.802-0.372-3.65,0.067-5.057,1.214c-1.407,1.146-2.214,2.843-2.214,4.655c0,2.485,1.57,4.738,3.908,5.605   c0.328,0.122,0.555,0.352,0.621,0.632l0.912,3.852c0.1,0.419-0.143,0.849-0.563,1.001c-1.347,0.485-2.632,1.131-3.821,1.919   c-0.453,0.301-1.067,0.288-1.46-0.029c-0.516-0.418-0.49-1.053-0.313-1.47c0.743-1.744,0.911-3.667,0.485-5.563   c-0.768-3.412-3.594-6.139-7.034-6.784C9.73,4.59,6.774,5.499,4.638,7.641C2.5,9.783,1.602,12.74,2.175,15.753   c0.682,3.592,3.561,6.442,7.165,7.095c1.535,0.275,3.041,0.174,4.481-0.299c0.435-0.145,0.936,0.018,1.242,0.401l0.4,0.497   c0.312,0.389,0.347,0.92,0.088,1.354c-1.282,2.149-2.087,4.497-2.392,6.977c-0.066,0.534-0.477,0.939-0.997,0.986l-1.897,0.17   c-0.444,0.044-0.781-0.226-0.946-0.388c-0.94-0.917-2.137-1.449-3.462-1.539c-2.229-0.148-4.319,1.072-5.275,3.036   c-0.738,1.516-0.764,3.248-0.069,4.754s2.012,2.608,3.616,3.024c2.327,0.604,4.751-0.369,6.026-2.42   c0.179-0.288,0.531-0.481,0.941-0.519l1.631-0.146c0.508-0.052,0.988,0.275,1.151,0.782c0.701,2.175,1.801,4.177,3.272,5.952   c0.166,0.199,0.155,0.5-0.025,0.7c-0.174,0.193-0.446,0.192-0.642,0.133c-0.839-0.268-1.716-0.362-2.608-0.276   c-2.974,0.282-5.417,2.631-5.81,5.584c-0.28,2.114,0.44,4.159,1.979,5.611c1.539,1.453,3.625,2.055,5.737,1.652   c2.317-0.442,4.257-2.199,4.942-4.477c0.313-1.043,0.367-2.1,0.162-3.142c-0.03-0.152,0.02-0.318,0.132-0.442l0.785-0.872   c0.166-0.185,0.437-0.239,0.641-0.127c0.517,0.282,1.056,0.541,1.6,0.77c0.664,0.279,1.062,1.003,0.991,1.799   c-0.062,0.689-0.019,1.391,0.128,2.083c0.616,2.926,3.126,5.185,6.104,5.492c0.242,0.024,0.484,0.037,0.726,0.037   c1.731,0,3.414-0.637,4.703-1.8c1.47-1.325,2.313-3.221,2.313-5.199c0-0.438-0.042-0.879-0.124-1.313   c-0.157-0.814,0.168-1.577,0.828-1.943c1.038-0.576,2.021-1.256,2.923-2.021c0.327-0.277,0.701-0.399,0.998-0.323   c0.45,0.113,0.672,0.378,0.778,0.579c0.15,0.284,0.17,0.628,0.055,0.942c-0.449,1.223-0.57,2.562-0.35,3.871   c0.537,3.18,3.147,5.704,6.348,6.138c2.311,0.311,4.583-0.425,6.245-2.026c1.662-1.6,2.487-3.841,2.263-6.149   C58.675,47.692,56.474,45.086,53.495,44.269z M55.322,55.461c-1.22,1.173-2.899,1.715-4.589,1.484   c-2.342-0.317-4.252-2.163-4.645-4.488c-0.166-0.98-0.08-1.938,0.254-2.849c0.311-0.846,0.251-1.78-0.163-2.565   c-0.419-0.793-1.149-1.355-2.057-1.585c-0.939-0.234-1.951,0.031-2.783,0.738c-0.801,0.681-1.675,1.285-2.598,1.797   c-1.408,0.78-2.141,2.416-1.823,4.067c0.059,0.31,0.089,0.625,0.089,0.938c0,1.413-0.603,2.767-1.652,3.714   c-1.063,0.959-2.441,1.414-3.884,1.258c-2.123-0.219-3.912-1.828-4.352-3.915c-0.105-0.499-0.137-1-0.093-1.492   c0.147-1.667-0.739-3.202-2.208-3.82c-0.483-0.203-0.96-0.433-1.419-0.682c-0.376-0.205-0.785-0.305-1.192-0.305   c-0.699,0-1.39,0.294-1.891,0.849l-0.785,0.872c-0.531,0.589-0.759,1.399-0.608,2.167c0.143,0.72,0.104,1.453-0.115,2.18   c-0.473,1.571-1.808,2.784-3.401,3.088c-1.471,0.28-2.923-0.135-3.988-1.142c-1.065-1.006-1.564-2.425-1.37-3.894   c0.268-2.007,1.994-3.665,4.016-3.857c0.624-0.057,1.232,0.005,1.812,0.191c1.011,0.321,2.06,0.053,2.735-0.699   c0.842-0.933,0.875-2.359,0.078-3.316c-1.307-1.577-2.284-3.356-2.906-5.288c-0.452-1.402-1.788-2.285-3.233-2.161l-1.632,0.146   c-1.033,0.093-1.953,0.637-2.461,1.455c-0.812,1.304-2.351,1.922-3.826,1.54c-1.021-0.265-1.86-0.967-2.302-1.926   c-0.448-0.973-0.43-2.053,0.052-3.041c0.604-1.24,1.938-2.024,3.342-1.916c0.844,0.057,1.604,0.394,2.199,0.974   c0.699,0.683,1.626,1.032,2.521,0.949l1.898-0.17c1.468-0.131,2.621-1.255,2.804-2.733c0.271-2.203,0.985-4.287,2.124-6.196   c0.681-1.141,0.582-2.6-0.246-3.632l-0.399-0.497c-0.826-1.029-2.201-1.451-3.428-1.049c-1.121,0.37-2.3,0.447-3.5,0.23   C6.9,20.374,4.668,18.164,4.14,15.38c-0.447-2.354,0.251-4.66,1.913-6.326c1.664-1.667,3.965-2.366,6.321-1.928   c2.666,0.501,4.857,2.614,5.452,5.259c0.333,1.482,0.204,2.982-0.374,4.338c-0.585,1.371-0.226,2.901,0.893,3.808   c1.069,0.869,2.644,0.928,3.825,0.144c1.056-0.7,2.197-1.273,3.394-1.705c1.378-0.497,2.166-1.934,1.832-3.343l-0.913-3.852   c-0.22-0.929-0.919-1.693-1.871-2.046c-1.557-0.578-2.604-2.077-2.604-3.73c0-1.209,0.538-2.34,1.477-3.104   c0.953-0.774,2.157-1.063,3.389-0.806c1.531,0.317,2.761,1.572,3.059,3.122c0.237,1.233-0.08,2.43-0.895,3.369   c-0.618,0.715-0.861,1.67-0.65,2.554l1.139,4.803c0.28,1.183,1.282,2.059,2.493,2.181c1.699,0.17,3.021,0.384,3.722,0.604   c2.128,0.66,4.43-0.333,5.478-2.367l1.158-2.249c0.636-1.233,0.654-2.729,0.051-4.102c-0.388-0.882-0.509-1.865-0.351-2.843   c0.34-2.102,2.049-3.789,4.156-4.103c1.585-0.239,3.135,0.26,4.265,1.36c1.129,1.1,1.665,2.638,1.472,4.219   c-0.205,1.673-1.339,3.173-2.96,3.914c-0.506,0.231-1.026,0.374-1.548,0.426c-1.487,0.147-2.816,1.092-3.555,2.526l-1.479,2.87   c-0.829,1.608-0.634,3.557,0.524,4.999c0.654,0.813,1.271,1.581,1.774,2.422c0.563,0.94,1.444,1.574,2.482,1.784   c1.042,0.215,2.11-0.03,3.002-0.682c0.341-0.251,0.566-0.374,0.696-0.435c1.226-0.565,2.598-0.616,3.859-0.142   c1.263,0.475,2.261,1.416,2.809,2.649c1.059,2.378,0.038,5.281-2.272,6.473c-1.269,0.653-2.76,0.733-4.089,0.222   c-0.93-0.359-1.942-0.305-2.853,0.157c-0.943,0.478-1.642,1.335-1.917,2.352c-0.226,0.832-0.521,1.65-0.877,2.434   c-0.601,1.318-0.243,2.861,0.869,3.754l1.411,1.131c0.717,0.577,1.669,0.802,2.609,0.612c0.833-0.165,1.676-0.134,2.509,0.095   v0.001c2.149,0.589,3.801,2.542,4.016,4.747C57.145,52.642,56.541,54.287,55.322,55.461z" fill="#FFFFFF"/>
	<path d="M32.008,36.998c-3.309,0-6,2.691-6,6s2.691,6,6,6s6-2.691,6-6S35.316,36.998,32.008,36.998z M32.008,46.998   c-2.206,0-4-1.794-4-4s1.794-4,4-4s4,1.794,4,4S34.214,46.998,32.008,46.998z" fill="#FFFFFF"/>
	<path d="M28.008,28.998c0-2.206-1.794-4-4-4s-4,1.794-4,4s1.794,4,4,4S28.008,31.204,28.008,28.998z M24.008,30.998   c-1.103,0-2-0.897-2-2s0.897-2,2-2s2,0.897,2,2S25.11,30.998,24.008,30.998z" fill="#FFFFFF"/>
	<path d="M41.008,27.998c-2.206,0-4,1.794-4,4s1.794,4,4,4s4-1.794,4-4S43.214,27.998,41.008,27.998z M41.008,33.998   c-1.103,0-2-0.897-2-2c0-1.103,0.897-2,2-2s2,0.897,2,2C43.008,33.101,42.11,33.998,41.008,33.998z" fill="#FFFFFF"/>
</g>
<g>
</g>
<g>
</g>
<g>
</g>
<g>
</g>
<g>
</g>
<g>
</g>
<g>
</g>
<g>
</g>
<g>
</g>
<g>
</g>
<g>
</g>
<g>
</g>
<g>
</g>
<g>
</g>
<g>
</g>
</svg>
