<?xml version="1.0" encoding="iso-8859-1"?>
<!-- Generator: Adobe Illustrator 19.0.0, SVG Export Plug-In . SVG Version: 6.00 Build 0)  -->
<svg xmlns="http://www.w3.org/2000/svg" xmlns:xlink="http://www.w3.org/1999/xlink" version="1.1" id="Layer_1" x="0px" y="0px" viewBox="0 0 512.011 512.011" style="enable-background:new 0 0 512.011 512.011;" xml:space="preserve" width="512px" height="512px">
<g>
	<g>
		<g>
			<path d="M110.939,170.668h290.133c4.71,0,8.533-3.823,8.533-8.533V76.801c0-46.652-26.795-76.8-68.267-76.8H179.206     c-43.785,0-76.8,33.016-76.8,76.8v85.333C102.406,166.845,106.229,170.668,110.939,170.668z M119.472,76.801     c0-34.611,25.122-59.733,59.733-59.733h162.133c37.752,0,51.2,30.857,51.2,59.733v76.8H119.472V76.801z" fill="#FFFFFF"/>
			<path d="M366.939,85.335h-68.267c-0.299,0-0.555,0.145-0.845,0.171c-3.9-19.533-21.163-34.304-41.822-34.304     c-20.659,0-37.922,14.771-41.822,34.304c-0.29-0.026-0.546-0.171-0.845-0.171h-68.267c-4.71,0-8.533,3.823-8.533,8.533     c0,4.71,3.823,8.533,8.533,8.533h68.267c0.299,0,0.555-0.145,0.845-0.171c3.9,19.533,21.163,34.304,41.822,34.304     c20.659,0,37.922-14.771,41.822-34.304c0.29,0.026,0.546,0.171,0.845,0.171h68.267c4.71,0,8.533-3.823,8.533-8.533     C375.472,89.157,371.649,85.335,366.939,85.335z M256.006,119.468c-14.114,0-25.6-11.486-25.6-25.6s11.486-25.6,25.6-25.6     s25.6,11.486,25.6,25.6S270.12,119.468,256.006,119.468z" fill="#FFFFFF"/>
			<path d="M120.991,255.02c4.378,18.611,18.91,76.877,34.048,99.584c10.974,16.452,36.668,54.997,100.966,54.997     s89.993-38.545,100.966-54.997c15.138-22.707,29.67-80.973,34.048-99.584c10.718-3.055,18.586-12.937,18.586-24.619v-34.133     c0-4.71-3.823-8.533-8.533-8.533c-4.71,0-8.533,3.823-8.533,8.533v34.133c0,4.702-3.831,8.533-8.533,8.533     c-4.002,0-7.467,2.782-8.328,6.682c-0.085,0.401-4.804,21.376-11.563,44.621c-0.179-0.009-0.333-0.102-0.512-0.102     c-0.631,0-63.753-0.188-104.422-16.461c-2.048-0.802-4.301-0.802-6.349,0c-40.602,16.247-103.663,16.461-104.294,16.461     c-0.222,0-0.41,0.111-0.631,0.128c-6.767-23.253-11.486-44.245-11.571-44.646c-0.862-3.9-4.326-6.682-8.329-6.682     c-4.702,0-8.533-3.831-8.533-8.533v-34.133c0-4.71-3.823-8.533-8.533-8.533c-4.71,0-8.533,3.823-8.533,8.533v34.133     C102.406,242.083,110.273,251.965,120.991,255.02z M256.006,290.749c37.282,13.918,87.509,16.06,102.912,16.384     c-5.001,15.292-10.615,29.696-16.145,37.999c-10.257,15.386-31.599,47.403-86.767,47.403c-55.168,0-76.51-32.017-86.767-47.403     c-5.53-8.294-11.145-22.699-16.137-37.99C168.334,306.817,218.63,304.701,256.006,290.749z" fill="#FFFFFF"/>
			<path d="M511.571,500.771l-8.533-25.6c-10.436-31.275-37.7-48.307-151.151-48.503c-6.98-3.482-32.333-16.171-32.333-16.171     c-3.063-1.519-6.758-1.075-9.37,1.161l-54.178,46.438l-54.178-46.438c-2.603-2.236-6.315-2.688-9.37-1.161l-32.333,16.179     c-7.791,0.009-15.138,0.111-22.135,0.282c-0.486-0.085-0.93-0.29-1.451-0.29c-0.683,0-1.28,0.239-1.92,0.384     c-92.134,2.637-116.036,19.345-125.645,48.12l-8.533,25.6c-1.493,4.471,0.93,9.301,5.402,10.795     c4.48,1.502,9.301-0.93,10.795-5.402l8.533-25.6c4.668-13.978,10.923-32.597,102.835-36.198v0.58     c-14.677,3.814-25.6,17.067-25.6,32.922c0,18.825,15.309,34.133,34.133,34.133s34.133-15.309,34.133-34.133     c0-15.855-10.923-29.107-25.6-32.922v-1.041c5.436-0.102,11.034-0.162,16.99-0.162h0.077c1.323,0,2.637-0.307,3.814-0.896     l29.073-14.549l52.446,44.962v30.208c0,4.71,3.823,8.533,8.533,8.533s8.533-3.823,8.533-8.533V473.26l52.446-44.962     c21.291,10.641,29.047,14.447,32.888,15.181v0.256c124.681,0,131.78,21.291,136.969,36.83l8.533,25.6     c1.195,3.576,4.523,5.837,8.098,5.837c0.887,0,1.801-0.137,2.697-0.435C510.64,510.073,513.064,505.243,511.571,500.771z      M153.606,477.868c0,9.412-7.654,17.067-17.067,17.067c-9.412,0-17.067-7.654-17.067-17.067s7.654-17.067,17.067-17.067     C145.951,460.801,153.606,468.456,153.606,477.868z" fill="#FFFFFF"/>
			<path d="M281.606,221.868c-4.71,0-8.533,3.823-8.533,8.533s3.823,8.533,8.533,8.533h8.533c0,4.71,3.823,8.533,8.533,8.533     s8.533-3.823,8.533-8.533h8.533c4.71,0,8.533-3.823,8.533-8.533s-3.823-8.533-8.533-8.533H281.606z" fill="#FFFFFF"/>
			<path d="M196.272,221.868c-4.71,0-8.533,3.823-8.533,8.533s3.823,8.533,8.533,8.533h8.533c0,4.71,3.823,8.533,8.533,8.533     c4.71,0,8.533-3.823,8.533-8.533h8.533c4.71,0,8.533-3.823,8.533-8.533s-3.823-8.533-8.533-8.533H196.272z" fill="#FFFFFF"/>
		</g>
	</g>
</g>
<g>
</g>
<g>
</g>
<g>
</g>
<g>
</g>
<g>
</g>
<g>
</g>
<g>
</g>
<g>
</g>
<g>
</g>
<g>
</g>
<g>
</g>
<g>
</g>
<g>
</g>
<g>
</g>
<g>
</g>
</svg>
