<svg id="Layer_1" enable-background="new 0 0 512.001 512.001" height="512" viewBox="0 0 512.001 512.001" width="512" xmlns="http://www.w3.org/2000/svg"><g><circle cx="406.001" cy="360" r="10"/><path d="m510.464 469.672-17-27c-2.943-4.674-9.118-6.076-13.791-3.134-4.674 2.942-6.077 9.116-3.134 13.79l7.349 11.672h-436.887v-255h103.751v30c0 5.522 4.477 10 10 10h96.499v30c0 5.522 4.477 10 10 10h48.751v30c0 5.522 4.477 10 10 10h9.999v30c0 2.63 1.07 5.21 2.93 7.069 1.86 1.86 4.44 2.931 7.07 2.931h15c5.52 0 10-4.49 10-10s-4.48-10-10-10h-5v-20h100v20h-5c-5.51 0-10 4.49-10 10s4.49 10 10 10h15c2.63 0 5.21-1.07 7.07-2.931 1.86-1.859 2.93-4.439 2.93-7.069v-40c0-2.63-1.07-5.21-2.93-7.07s-4.44-2.93-7.07-2.93h-57.001v-30c0-5.522-4.477-10-10-10h-48.751v-30c0-5.522-4.477-10-10-10h-46.499v-30c0-5.522-4.477-10-10-10h-36.499v-30c0-5.522-4.477-10-10-10h-190.25v-121.886l11.672 7.349c1.655 1.043 3.498 1.54 5.319 1.539 3.321 0 6.571-1.654 8.472-4.673 2.942-4.674 1.54-10.848-3.134-13.79l-27-17c-3.256-2.051-7.4-2.051-10.656 0l-27 17c-4.674 2.942-6.077 9.116-3.134 13.79s9.118 6.076 13.791 3.134l11.672-7.349v43.886h-11.75c-5.523 0-10 4.478-10 10s4.477 10 10 10h11.75v60h-11.75c-5.523 0-10 4.478-10 10s4.477 10 10 10h11.75v60h-11.75c-5.523 0-10 4.478-10 10s4.477 10 10 10h11.75v60h-11.75c-5.523 0-10 4.478-10 10s4.477 10 10 10h11.75v60h-11.75c-5.523 0-10 4.478-10 10s4.477 10 10 10h11.75v53h-17c-5.523 0-10 4.478-10 10s4.477 10 10 10h17v17c0 5.522 4.477 10 10 10s10-4.478 10-10v-17h53v11.75c0 5.522 4.477 10 10 10s10-4.478 10-10v-11.75h60v11.75c0 5.522 4.477 10 10 10s10-4.478 10-10v-11.75h60v11.75c0 5.522 4.477 10 10 10s10-4.478 10-10v-11.75h60v11.75c0 5.522 4.477 10 10 10s10-4.478 10-10v-11.75h60v11.75c0 5.522 4.477 10 10 10s10-4.478 10-10v-11.75h43.887l-7.349 11.672c-2.942 4.674-1.54 10.848 3.134 13.79 1.655 1.043 3.498 1.539 5.319 1.539 3.321 0 6.571-1.654 8.472-4.673l17-27c2.048-3.256 2.048-7.4-.002-10.656zm-174.461-179.672h52.997v20h-52.997zm-58.752-40h52.997v20h-52.997zm-3.501-40v20h-102.997v-20zm-226.749-40h180.25v20h-180.25z"/></g></svg>