<?xml version="1.0" encoding="iso-8859-1"?>
<!-- Generator: Adobe Illustrator 18.0.0, SVG Export Plug-In . SVG Version: 6.00 Build 0)  -->
<!DOCTYPE svg PUBLIC "-//W3C//DTD SVG 1.1//EN" "http://www.w3.org/Graphics/SVG/1.1/DTD/svg11.dtd">
<svg xmlns="http://www.w3.org/2000/svg" xmlns:xlink="http://www.w3.org/1999/xlink" version="1.1" id="Capa_1" x="0px" y="0px" viewBox="0 0 297 297" style="enable-background:new 0 0 297 297;" xml:space="preserve" width="512px" height="512px">
<g>
	<path d="M130.574,62.036h7.17v7.17c0,5.554,4.503,10.056,10.056,10.056s10.056-4.503,10.056-10.056v-7.17h7.17   c5.554,0,10.056-4.503,10.056-10.056s-4.503-10.056-10.056-10.056h-7.17v-7.17c0-5.554-4.503-10.056-10.056-10.056   s-10.056,4.503-10.056,10.056v7.17h-7.17c-5.554,0-10.056,4.503-10.056,10.056S125.02,62.036,130.574,62.036z" fill="#FFFFFF"/>
	<path d="M98.793,247.277c-12.811,2.776-51.06,11.92-51.06,11.92c-4.358,1.018-7.519,4.793-7.755,9.263   c-0.236,4.469,2.51,8.557,6.737,10.028C87.151,292.562,123.052,297,152.248,297c16.689,0,31.186-1.451,43.089-3.379   c35.902-5.822,56.675-17.04,57.543-17.515c3.707-2.031,5.749-6.162,5.11-10.341c-0.639-4.179-3.823-7.511-7.968-8.34   l-50.745-10.149c-6.103-1.221-10.641-8.964-11.227-15.416h56.445c5.105,0,9.399-3.824,9.988-8.894   c8.704-74.79-10.539-110.052-16.785-119.266l18.036-80.691c0.582-2.603,0.106-5.331-1.323-7.582s-3.695-3.844-6.297-4.425   c-65.625-14.67-135-14.67-200.627,0c-2.602,0.581-4.868,2.173-6.297,4.425c-1.429,2.252-1.905,4.98-1.323,7.582l18.037,80.69   c-6.246,9.215-25.49,44.477-16.785,119.266c0.589,5.069,4.885,8.894,9.988,8.894h58.914   C109.434,238.312,104.876,245.959,98.793,247.277z M100.803,188.839c-4.531-6.862-8.452-14.428-11.667-22.271   c45.574-1.333,73.922-16.405,87.999-26.597c5.183,7.573,14.285,16.988,30.004,24.955c-3.331,8.431-7.494,16.572-12.342,23.913   c-13.626,20.636-30.756,32.472-46.997,32.472S114.429,209.475,100.803,188.839z M215.317,109.805   c0.751,4.794,0.759,9.005,0.759,11.898c0,7.525-1.016,15.564-2.871,23.684c-18.665-10.435-22.634-22.363-23.024-23.684   c-0.732-3.729-3.447-6.568-7.116-7.586c-3.7-1.024-7.593,0.308-10.143,3.176c-1.092,1.195-27.467,29.254-90.262,29.268   c-2.032-8.519-3.135-16.97-3.135-24.858c0-2.893,0.007-7.104,0.759-11.898C124.664,101.273,170.934,101.273,215.317,109.805z    M235.42,211.748h-32.618c3.04-3.632,5.973-7.576,8.779-11.826c10.255-15.53,17.738-33.676,21.61-51.636   C236.179,163.502,237.87,184.324,235.42,211.748z M233.886,28.552L220.097,90.24c-23.753-4.632-48.025-6.948-72.297-6.948   c-24.273,0-48.544,2.316-72.297,6.948l-13.79-61.688C118.244,17.295,177.355,17.295,233.886,28.552z M62.421,148.342   c3.876,17.942,11.354,36.066,21.598,51.58c2.806,4.25,5.738,8.194,8.779,11.826H60.18   C57.737,184.374,59.429,163.566,62.421,148.342z M90.074,269.962l12.835-2.998c14.166-2.909,24.834-14.471,26.916-28.462   c5.89,1.927,11.905,2.922,17.976,2.922c6.882,0,13.693-1.278,20.33-3.747c1.785,14.416,12.671,26.415,27.201,29.321l15.048,3.01   C183.752,276.6,142.136,281.492,90.074,269.962z" fill="#FFFFFF"/>
</g>
<g>
</g>
<g>
</g>
<g>
</g>
<g>
</g>
<g>
</g>
<g>
</g>
<g>
</g>
<g>
</g>
<g>
</g>
<g>
</g>
<g>
</g>
<g>
</g>
<g>
</g>
<g>
</g>
<g>
</g>
</svg>
