<?xml version="1.0"?>
<svg xmlns="http://www.w3.org/2000/svg" viewBox="0 0 512 512" width="512" height="512"><g id="Out_line" data-name="Out line"><path d="M184,312V224a8.00008,8.00008,0,0,0-8-8H144a8.00008,8.00008,0,0,0-8,8v88h16V232h16v80Z"/><path d="M312,344V232a8.00008,8.00008,0,0,0-8-8H272a8.00008,8.00008,0,0,0-8,8V344h16V240h16V344Z"/><path d="M248,344V200a8.00008,8.00008,0,0,0-8-8H208a8.00008,8.00008,0,0,0-8,8V328h16V208h16V344Z"/><path d="M376,280V200a8.00008,8.00008,0,0,0-8-8H336a8.00008,8.00008,0,0,0-8,8v88h16V208h16v72Z"/><path d="M440,272V152a8.00008,8.00008,0,0,0-8-8H400a8.00008,8.00008,0,0,0-8,8V272h16V160h16V272Z"/><path d="M138.34277,197.65674a8.00122,8.00122,0,0,0,11.31446,0l66.03711-66.0376,66.35937,73.73242a7.99878,7.99878,0,0,0,5.73633,2.64551c.07031.00195.13965.00293.21.00293a8.00105,8.00105,0,0,0,5.65723-2.34326L400,99.314V120a8.00008,8.00008,0,0,0,8,8h32a8.00008,8.00008,0,0,0,8-8V24a8.00008,8.00008,0,0,0-8-8H344a8.00008,8.00008,0,0,0-8,8V56a8.00008,8.00008,0,0,0,8,8h20.68652l-76.38086,76.38086L221.94629,66.64844a8.00044,8.00044,0,0,0-11.60352-.30518l-96,96a8,8,0,0,0,0,11.31348Zm77.35157-114.0376,66.35937,73.73242a8.00044,8.00044,0,0,0,11.60352.30518l96-96A8.00038,8.00038,0,0,0,384,48H352V32h80v80H416V80a8.0001,8.0001,0,0,0-13.65723-5.65674L288.30566,188.38086l-66.35937-73.73242a7.99878,7.99878,0,0,0-5.73633-2.64551c-.07031-.002-.13965-.00293-.21-.00293a8.00105,8.00105,0,0,0-5.65723,2.34326L144,180.686,131.31348,168Z"/><path d="M88,488V472h24a8.00008,8.00008,0,0,0,8-8V443.04053a201.12746,201.12746,0,0,0,278.22559-5.9502l87.43164-87.4292a30.62834,30.62834,0,0,0-37.41773-47.92041,31.17652,31.17652,0,0,0-51.18677-1.70654l-3.39184,4.55048a34.41184,34.41184,0,0,0-5.54566-3.47138,34.336,34.336,0,0,0-46.668,16.62061l-20.167,44.81555A35.79475,35.79475,0,0,0,308,360H211.31348l-13.65625-13.65674A64.67459,64.67459,0,0,0,120,335.92963V328a8.00008,8.00008,0,0,0-8-8H88v-8a8.00008,8.00008,0,0,0-8-8H16v16H72V480H16v16H80A8.00008,8.00008,0,0,0,88,488ZM429.86719,305.6499a15.13539,15.13539,0,0,1,6.12817,7.04083L372.51953,376.1665a135.33848,135.33848,0,0,1-28.52295,21.8208l65.88428-88.39111A15.13857,15.13857,0,0,1,429.86719,305.6499Zm-73.83008,18.64942a18.33677,18.33677,0,0,1,24.92187-8.87549,18.4104,18.4104,0,0,1,3.13623,1.99438L339.062,377.83545a36.19223,36.19223,0,0,0-4.41089-6.01184ZM186.34277,357.65674l16,16A8.00076,8.00076,0,0,0,208,376H308a20,20,0,0,1,0,40H208v16H308a35.902,35.902,0,0,0,26.35938-11.51617A151.104,151.104,0,0,0,383.834,387.48l69.82227-69.82227a14.62931,14.62931,0,0,1,20.68848,20.68946l-87.4336,87.4292a185.13824,185.13824,0,0,1-261.82324-.00244L120,420.686V355.479A48.62426,48.62426,0,0,1,186.34277,357.65674ZM104,336V456H88V336Z"/></g></svg>
